<svg width="36" height="36" viewBox="0 0 36 36" fill="none" xmlns="http://www.w3.org/2000/svg">
<g clip-path="url(#clip0_2049_7413)">
<path d="M29.25 6.75L13.9711 26.3883C13.6687 26.7258 13.5 27.2742 13.5 27.7102L13.4367 36L8.59921 25.3336L29.25 6.75Z" fill="#651FFF"/>
<path opacity="0.4" d="M35.972 2.59221L31.4719 31.7789C31.3665 32.4633 30.9534 33.06 30.3491 33.3996C30.0085 33.5908 29.6269 33.6877 29.2466 33.6877C28.9521 33.6877 28.6616 33.6304 28.3824 33.5139L19.7621 29.9209L13.4368 36.0005L13.5001 27.7106C13.5001 27.2104 13.6669 26.7242 13.9741 26.3297L29.2501 6.75049L8.59929 25.3341L1.38453 22.3247C0.593371 21.9942 0.0572028 21.2489 0.00446843 20.3278C-0.0482659 19.4067 0.389008 18.66 1.13369 18.2346L32.6337 0.297909C33.3853 -0.13163 34.3127 -0.0921149 35.0243 0.396768C35.7359 0.885651 36.1055 1.73861 35.972 2.59221Z" fill="#651FFF"/>
</g>
<defs>
<clipPath id="clip0_2049_7413">
<rect width="36" height="36" fill="white"/>
</clipPath>
</defs>
</svg>
